# xmcd CD database file
#
# Track frame offsets:
#	150
#	17472
#	32377
#	49182
#	63682
#	76130
#	97047
#	113382
#	126342
#	153377
#	170105
#	201490
#	214462
#	229912
#	257620
#	272112
#	281552
#	299395
#	313635
#
# Disc length: 4363 seconds
#
# Revision: 0
# Processed by: cddbd v1.4PL0 Copyright (c) Steve Scherf et al.
# Submitted via: CDex 1.51
#
DISCID=19110913
DTITLE=Queen Bee and the Blue Hornet Band - Front to Back
DYEAR=1998
DGENRE=Blues
TTITLE0=Crazy 'Bout You
TTITLE1=If You're Thinkin'
TTITLE2=I Put A Spell On You
TTITLE3=Walk Right Up To Me Baby
TTITLE4=Let's Buzz
TTITLE5=Chicken Shack
TTITLE6=Rt. 66
TTITLE7=You Can Have My Husband
TTITLE8=Ana McKinley
TTITLE9=Let Me Tell You What Love Is
TTITLE10=Fools Fall In Love
TTITLE11=Baby Loves The Way
TTITLE12=Take Your Lies Home To Mama
TTITLE13=Man Down In Texas
TTITLE14=Fortune Teller
TTITLE15=90 M.P.H.
TTITLE16=Queen For A Day
TTITLE17=Running Shoes
TTITLE18=Bloody Mary
EXTD=YEAR: 1998
EXTT0=
EXTT1=
EXTT2=
EXTT3=
EXTT4=
EXTT5=
EXTT6=
EXTT7=
EXTT8=
EXTT9=
EXTT10=
EXTT11=
EXTT12=
EXTT13=
EXTT14=
EXTT15=
EXTT16=
EXTT17=
EXTT18=
PLAYORDER=
